<svg xmlns="http://www.w3.org/2000/svg" viewBox="0 0 537.76 59.81"><defs><style>.cls-1{fill:#fff;}</style></defs><g id="Layer_2" data-name="Layer 2"><g id="Layer_1-2" data-name="Layer 1"><path class="cls-1" d="M146,19.64A17.75,17.75,0,0,1,173.9,22.2c.78-.91,1.46-1.79,2.23-2.58,4.54-4.65,10.05-6.29,16.44-5.32a16.2,16.2,0,0,1,11.12,6.6,18.76,18.76,0,0,1,3.37,10.56c0,.95.07,1.91.07,2.86,0,7.89,0,15.77,0,23.66,0,.82-.19,1.15-1.07,1.14q-5.75-.06-11.48,0c-.89,0-1.07-.34-1.07-1.15,0-7.47.06-14.95,0-22.42a15,15,0,0,0-.73-4.82,6.89,6.89,0,0,0-5.45-4.61c-3.39-.64-6.56-.27-9,2.53a9,9,0,0,0-1.89,6.22c0,7.64,0,15.29,0,22.94,0,1-.29,1.33-1.32,1.31-3.69-.06-7.38,0-11.07,0-1,0-1.24-.32-1.24-1.28q.06-11,0-22a17.68,17.68,0,0,0-.49-4.24,7,7,0,0,0-5.66-5.44c-3.29-.68-6.4-.31-8.87,2.31a8.32,8.32,0,0,0-2,6.05c0,7.78,0,15.57,0,23.35,0,1-.24,1.29-1.24,1.27-3.76,0-7.52,0-11.27,0-.89,0-1.25-.18-1.25-1.18q0-21,0-42.09c0-1.3,0-1.33,1.31-1.33,3.72,0,7.45,0,11.17,0,1,0,1.31.33,1.26,1.3-.07,1.25,0,2.5,0,3.76Z"/><path class="cls-1" d="M314.07,27.16l2.77-3.62q7.49-9.85,15-19.72A1.91,1.91,0,0,1,333.52,3c4.51,0,9,0,13.53,0,.36,0,.72,0,1.26,0a7.79,7.79,0,0,1-.54.9l-18,22.77c-.78,1-1.54,2-2.34,3a1.06,1.06,0,0,0,0,1.59q7.8,9.82,15.54,19.69c2.07,2.62,4.13,5.24,6.32,8-.44,0-.72.1-1,.1-4.92,0-9.84,0-14.76,0a1.77,1.77,0,0,1-1.56-.92Q324,47.73,316,37.27c-.63-.83-1.27-1.65-1.91-2.48l-.28.08c0,.34-.06.69-.06,1,0,7.34,0,14.68,0,22,0,1-.3,1.21-1.22,1.2q-5.73-.06-11.48,0c-.79,0-1-.23-1-1q0-27,0-54c0-.83.23-1.13,1.1-1.12,3.82,0,7.65,0,11.47,0,.91,0,1.17.28,1.17,1.17,0,7.27,0,14.54,0,21.81V27Z"/><path class="cls-1" d="M74.31,53.11a7.51,7.51,0,0,0-.7.65,15.86,15.86,0,0,1-10.46,5.8c-10.22,1.44-18.35-5.18-21-14a30,30,0,0,1-.37-16.28c1.56-6.15,4.95-11.08,10.9-13.66,6.43-2.79,12.76-2.47,18.58,1.83a12.38,12.38,0,0,1,1.49,1.41c.44.46.84,1,1.45,1.63,0-.5.11-.77.11-1,0-1.33,0-2.66,0-4,0-.64.23-.93.91-.92h12c.64,0,.87.25.83.85a4.47,4.47,0,0,0,0,.52q0,21,0,42c0,1-.26,1.28-1.26,1.26-3.79,0-7.58,0-11.37,0-.82,0-1.15-.22-1.12-1.1C74.36,56.49,74.31,55,74.31,53.11ZM54.69,36.74c.17,1.17.3,2.36.53,3.52a9.45,9.45,0,0,0,7.35,7.38c4.38.7,8.16-.9,10.17-4.48a13.32,13.32,0,0,0,1-10.4,9.56,9.56,0,0,0-14.47-5.4C55.92,29.6,54.85,32.91,54.69,36.74Z"/><path class="cls-1" d="M396.74,44.5a19.3,19.3,0,0,1-4.17,7.9c-4.86,5.64-11.24,7.67-18.41,7.34-5.82-.27-11.08-2.24-15.18-6.63a21.46,21.46,0,0,1-5.31-10.43,30.23,30.23,0,0,1-.37-9.58c.91-8.13,5.73-15.25,14.06-17.91a25.28,25.28,0,0,1,18.95,1,19.32,19.32,0,0,1,10.36,12.06,26.05,26.05,0,0,1,1,10.82c-.08.82-.4,1.07-1.22,1.07-9.42,0-18.85,0-28.27,0-1.55,0-1.64.1-1.35,1.64a8.14,8.14,0,0,0,8.9,6.87A7.12,7.12,0,0,0,382,44.83a1.12,1.12,0,0,1,.79-.49q6.81,0,13.62,0C396.49,44.36,396.56,44.41,396.74,44.5Zm-29.84-12h15.18a3.46,3.46,0,0,0,1.12,0c.26-.09.61-.44.6-.66a6.46,6.46,0,0,0-2.6-5.1,9.48,9.48,0,0,0-9.68-1.08A7.93,7.93,0,0,0,366.9,32.5Z"/><path class="cls-1" d="M446.12,44.48c-.56,1.39-1,2.73-1.59,4a20.1,20.1,0,0,1-11.84,10.1,25,25,0,0,1-13.23.66A20.28,20.28,0,0,1,404.72,48a25.64,25.64,0,0,1-2.27-13.57c.39-5.64,2.28-10.66,6.43-14.62a21.19,21.19,0,0,1,13-5.75,25,25,0,0,1,14.23,2.43,19.69,19.69,0,0,1,9.76,11.72A25.86,25.86,0,0,1,447,38.9c-.09,1-.48,1.23-1.42,1.23-9.43,0-18.86,0-28.28,0-1.38,0-1.47.13-1.2,1.46.66,3.3,2.33,5.76,5.7,6.7s7.46.26,9.39-3.27a1.44,1.44,0,0,1,1-.65c4.4,0,8.81,0,13.22,0A4.11,4.11,0,0,1,446.12,44.48Zm-21.56-12h6.35c2.47,0,2.72-.39,1.78-2.75,0-.06-.07-.11-.09-.18-1.62-4.18-6.77-5.61-10.93-4.28a7.86,7.86,0,0,0-5.36,5.82c-.39,1.39-.41,1.39,1.08,1.39Z"/><path class="cls-1" d="M269.71,13.9A23.13,23.13,0,0,1,284.92,19a21.07,21.07,0,0,1,7.64,14.13A24.79,24.79,0,0,1,291,46.3a21.06,21.06,0,0,1-14.17,12.43,24.39,24.39,0,0,1-8.3,1.05c-8.48-.5-15.37-3.83-19.52-11.59a24.39,24.39,0,0,1-2.48-13.5,22.38,22.38,0,0,1,4.22-11.88,20.26,20.26,0,0,1,11.5-7.89c2.42-.64,4.94-.87,7.42-1.29ZM260.3,37.61c.14.79.3,2.29.68,3.73a8.59,8.59,0,0,0,7.83,6.58,8.92,8.92,0,0,0,8.68-4.86,14.33,14.33,0,0,0,.39-11.8c-2.24-6-10.61-7.5-14.86-2.72C260.87,31,260.4,33.86,260.3,37.61Z"/><path class="cls-1" d="M0,3H1q17.1,0,34.22,0c.87,0,1.2.19,1.18,1.12,0,2.94,0,5.88,0,8.81,0,.84-.23,1.11-1.1,1.11-6.86,0-13.73,0-20.59,0-1,0-1.29.26-1.27,1.26q.09,4.65,0,9.32c0,1,.31,1.24,1.25,1.23,4.88,0,9.77,0,14.65,0,1.07,0,1.32.32,1.3,1.34-.07,2.76-.05,5.53,0,8.29,0,.8-.24,1.06-1.06,1.06-4.95,0-9.9,0-14.86,0-1,0-1.27.29-1.27,1.28,0,6.76,0,13.52,0,20.28,0,.9-.23,1.17-1.14,1.16-4.1,0-8.2,0-12.38,0Z"/><path class="cls-1" d="M505.9,44.5c1.92,0,3.83,0,5.74,0a1.34,1.34,0,0,1,1,.66,6.18,6.18,0,0,0,5.78,4.42,14.74,14.74,0,0,0,3.74-.35,3.31,3.31,0,0,0,2.57-2.86,2.62,2.62,0,0,0-1.89-3c-2.31-.88-4.7-1.59-7.08-2.27-3.21-.91-6.5-1.57-9.47-3.2-8.05-4.41-7.28-15.41-.87-20.19a19.28,19.28,0,0,1,9.74-3.63,26.52,26.52,0,0,1,10.56.75,15.6,15.6,0,0,1,11.18,11.43c.17.63.28,1.27.4,1.91s-.07.89-.74.89c-3.66,0-7.31,0-11,0a1.21,1.21,0,0,1-.93-.57c-.83-3-3.06-4.2-5.94-4.41a6,6,0,0,0-4.28,1,2.9,2.9,0,0,0,.35,4.94,42.47,42.47,0,0,0,6,2c4,1.1,8.07,1.88,11.56,4.19a11.27,11.27,0,0,1,5.27,11.35c-.56,4.63-3.3,7.86-7.49,9.92a23.52,23.52,0,0,1-11.83,2.27c-5-.26-9.7-1.53-13.67-4.77a14.84,14.84,0,0,1-5.45-9.32c-.15-.89.11-1.23,1.06-1.2C502.15,44.54,504,44.5,505.9,44.5Z"/><path class="cls-1" d="M232.49,35.39c0,2.7,0,5.39,0,8.09s1.09,4,3.95,4.07c1.36.05,2.73,0,4.09,0,.68,0,1,.18,1,.92,0,3.28,0,6.56,0,9.83,0,.57-.18.82-.76.8A100.47,100.47,0,0,1,230,58.62c-5.88-.86-10-4.37-10.83-10.91a52.54,52.54,0,0,1-.36-6c-.06-4.92,0-9.83,0-14.75,0-.87-.27-1.13-1.11-1.08-1.12.06-2.25,0-3.38,0-.73,0-.95-.26-.94-.95q0-4.71,0-9.42c0-.73.21-1.06,1-1,1.13.05,2.26,0,3.38,0,.81,0,1.07-.22,1.06-1-.05-2.93,0-5.87,0-8.8,0-.81.25-1.06,1.06-1,3.86,0,7.71,0,11.57,0,.8,0,1.08.26,1.07,1.07,0,2.9,0,5.8,0,8.7,0,.84.25,1.14,1.1,1.13,2.29,0,4.58,0,6.87,0,.76,0,1,.25,1,1q0,4.71,0,9.42c0,.79-.29,1-1,1-2.26,0-4.51,0-6.76,0-1,0-1.22.31-1.2,1.24C232.52,29.86,232.49,32.63,232.49,35.39Z"/><path class="cls-1" d="M454.34,29.49c0-9.38,0-18.77,0-28.16,0-1,.3-1.34,1.33-1.32,3.73,0,7.45,0,11.17,0,.95,0,1.2.29,1.2,1.23q0,28.37,0,56.73c0,.92-.28,1.16-1.16,1.15q-5.69-.06-11.37,0c-.9,0-1.17-.25-1.16-1.16C454.35,48.47,454.34,39,454.34,29.49Z"/><path class="cls-1" d="M477.91,29.5c0-9.39,0-18.77,0-28.16,0-1,.2-1.36,1.28-1.34,3.72.07,7.44.05,11.16,0,.86,0,1.2.18,1.2,1.13q0,28.46,0,56.92c0,.8-.22,1.06-1,1.06q-5.79-.06-11.58,0c-.83,0-1-.27-1-1.06C477.92,48.54,477.91,39,477.91,29.5Z"/><path class="cls-1" d="M111.55,21.7c.7-.83,1.21-1.49,1.78-2.1a16.52,16.52,0,0,1,11.06-5.55c.84-.08,1.13.16,1.12,1,0,4.06-.05,8.12,0,12.18,0,1-.36,1.25-1.31,1.25a53.46,53.46,0,0,0-5.51.25,7.34,7.34,0,0,0-6.91,6.76,34.52,34.52,0,0,0-.28,4.18q-.06,9.11,0,18.22c0,.87-.19,1.19-1.13,1.18-3.82,0-7.64,0-11.47,0-.81,0-1-.24-1-1q0-21.19,0-42.38c0-.95.28-1.21,1.22-1.2q5.6.09,11.17,0c1,0,1.29.33,1.25,1.29-.07,1.6,0,3.21,0,4.81C111.48,20.88,111.52,21.17,111.55,21.7Z"/></g></g></svg>